<svg width="128" height="128" viewBox="0 0 128 128" fill="none" xmlns="http://www.w3.org/2000/svg">
<rect width="128" height="128" rx="64" fill="white"/>
<path d="M41.5969 89.2135H40.7391C34.6287 89.2135 32.0024 88.6196 32.108 84.8056C32.1476 82.958 32.7415 79.5134 33.8104 74.9208L34.4043 72.4792C34.6683 71.3707 34.853 70.4073 34.9982 69.4834L37.1098 59.0839C37.2945 58.4109 37.4793 57.6718 37.6245 56.8668L39.4721 48.0509C40.9502 40.9376 42.0324 38.8656 47.958 38.8656H52.0624L53.6857 31.0527H47.9052C44.4211 31.0527 40.5411 31.1979 37.3473 33.1643C34.1536 35.1307 32.4247 38.7204 31.1578 44.7516L28.7163 56.8668C28.1224 59.5326 27.4625 60.0869 24.2687 60.0869H19.5573L18 68.0053H22.7379C24.8098 68.0053 25.7732 68.2957 25.7337 70.4469C25.6941 71.859 25.2849 74.1157 24.4799 77.5998L24.3743 77.9298C23.6353 80.7408 23.2657 83.631 23.147 86.5212C23.0018 94.3737 27.4097 96.9999 37.6245 96.9999H56.6155L58.1728 89.2267L41.5969 89.2135Z" fill="url(#paint0_linear_59302_43700)"/>
<path d="M86.5073 38.7337H87.3652C93.4755 38.7337 96.1018 39.3275 95.9962 43.1812C95.9567 45.0288 95.3628 48.4733 94.2938 53.066L93.6999 55.5075C93.436 56.6161 93.2512 57.5795 93.1852 58.5033L91.0736 68.982C90.8889 69.6551 90.7041 70.3941 90.5589 71.1992L88.7113 80.015C87.2332 87.1284 86.151 89.2004 80.2254 89.2004H76.0814L74.3262 96.9868H80.1066C83.5907 96.9868 87.4707 96.8416 90.6645 94.8752C93.8847 92.8428 95.5871 89.3191 96.8541 83.288L99.2956 71.1728C99.8895 68.5069 100.549 67.9526 103.743 67.9526H108.481L110.078 60.0342H105.406C103.334 60.0342 102.371 59.7439 102.41 57.5927C102.45 56.1806 102.859 53.9238 103.664 50.4397L103.769 50.1098C104.509 47.2987 104.878 44.4085 104.997 41.4787C105.142 33.6263 100.813 31 90.4797 31H71.4755L69.8787 38.7732H86.5073V38.7337Z" fill="#405CFF"/>
<path d="M65.8534 50.7041C68.4533 50.7041 70.1821 52.8157 69.7202 55.4156C69.2583 58.0154 66.764 60.127 64.1641 60.127C61.5643 60.127 59.8354 58.0154 60.2973 55.4156C60.7592 52.8157 63.2535 50.7041 65.8534 50.7041Z" fill="url(#paint1_linear_59302_43700)"/>
<path d="M62.937 68.2031C65.5369 68.2031 67.2658 70.3147 66.8039 72.9146C66.342 75.5145 63.8477 77.626 61.2478 77.626C58.6479 77.626 56.919 75.5145 57.3809 72.9146C57.8428 70.3147 60.3372 68.2031 62.937 68.2031Z" fill="url(#paint2_linear_59302_43700)"/>
<defs>
<linearGradient id="paint0_linear_59302_43700" x1="65.651" y1="30.7959" x2="26.5829" y2="98.4638" gradientUnits="userSpaceOnUse">
<stop offset="0.2" stop-color="#22E6B8"/>
<stop offset="1" stop-color="#00C1CE"/>
</linearGradient>
<linearGradient id="paint1_linear_59302_43700" x1="72.422" y1="42.5694" x2="36.3355" y2="105.073" gradientUnits="userSpaceOnUse">
<stop offset="0.2" stop-color="#22E6B8"/>
<stop offset="1" stop-color="#00C1CE"/>
</linearGradient>
<linearGradient id="paint2_linear_59302_43700" x1="76.6291" y1="47.7336" x2="40.5427" y2="110.237" gradientUnits="userSpaceOnUse">
<stop offset="0.2" stop-color="#22E6B8"/>
<stop offset="1" stop-color="#00C1CE"/>
</linearGradient>
</defs>
</svg>
