<svg width="116" height="84" viewBox="0 0 116 84" fill="none" xmlns="http://www.w3.org/2000/svg">
<path d="M29.9961 73.5174H28.9238C21.2858 73.5174 18.003 72.775 18.135 68.0075C18.1845 65.6979 18.9268 61.3923 20.2631 55.6514L21.0054 52.5996C21.3353 51.2138 21.5663 50.0096 21.7478 48.8548L24.3872 35.8554C24.6182 35.0141 24.8491 34.0903 25.0306 33.084L27.3401 22.0642C29.1878 13.1724 30.5405 10.5825 37.9475 10.5825H43.078L45.1071 0.816406H37.8815C33.5264 0.816406 28.6764 0.99787 24.6842 3.45588C20.692 5.91389 18.5309 10.401 16.9472 17.94L13.8953 33.084C13.153 36.4163 12.3281 37.1091 8.33593 37.1091H2.44661L0.5 47.0072H6.42232C9.0123 47.0072 10.2166 47.3701 10.1671 50.0591C10.1176 51.8242 9.60618 54.6451 8.59988 59.0003L8.46791 59.4127C7.54409 62.9265 7.08218 66.5393 6.93371 70.152C6.75225 79.9676 12.2621 83.2504 25.0306 83.2504H48.7693L50.716 73.5339L29.9961 73.5174Z" fill="url(#paint0_linear_59302_43701)"/>
<path d="M86.1342 10.4171H87.2065C94.8445 10.4171 98.1273 11.1594 97.9954 15.9765C97.9459 18.286 97.2035 22.5916 95.8673 28.3325L95.1249 31.3844C94.795 32.7701 94.5641 33.9744 94.4816 35.1291L91.8421 48.2275C91.6111 49.0688 91.3802 49.9927 91.1987 50.999L88.8892 62.0188C87.0416 70.9105 85.6888 73.5005 78.2818 73.5005H73.1018L70.9078 83.2335H78.1333C82.4885 83.2335 87.3385 83.052 91.3307 80.594C95.3559 78.0536 97.484 73.6489 99.0677 66.1099L102.12 50.966C102.862 47.6336 103.687 46.9408 107.679 46.9408H113.601L115.597 37.0427H109.758C107.168 37.0427 105.963 36.6798 106.013 33.9909C106.062 32.2257 106.574 29.4048 107.58 25.0496L107.712 24.6372C108.636 21.1234 109.098 17.5106 109.246 13.8484C109.428 4.03284 104.017 0.75 91.0998 0.75H67.3445L65.3484 10.4666H86.1342V10.4171Z" fill="#405CFF"/>
<path d="M60.3168 25.3799C63.5666 25.3799 65.7277 28.0194 65.1503 31.2692C64.5729 34.5191 61.455 37.1585 58.2052 37.1585C54.9553 37.1585 52.7943 34.5191 53.3717 31.2692C53.949 28.0194 57.0669 25.3799 60.3168 25.3799Z" fill="url(#paint1_linear_59302_43701)"/>
<path d="M56.6713 47.2539C59.9211 47.2539 62.0822 49.8934 61.5048 53.1432C60.9274 56.3931 57.8095 59.0325 54.5597 59.0325C51.3098 59.0325 49.1488 56.3931 49.7261 53.1432C50.3035 49.8934 53.4214 47.2539 56.6713 47.2539Z" fill="url(#paint2_linear_59302_43701)"/>
<defs>
<linearGradient id="paint0_linear_59302_43701" x1="60.0637" y1="0.4954" x2="11.2286" y2="85.0803" gradientUnits="userSpaceOnUse">
<stop offset="0.2" stop-color="#22E6B8"/>
<stop offset="1" stop-color="#00C1CE"/>
</linearGradient>
<linearGradient id="paint1_linear_59302_43701" x1="68.5274" y1="15.2116" x2="23.4194" y2="93.341" gradientUnits="userSpaceOnUse">
<stop offset="0.2" stop-color="#22E6B8"/>
<stop offset="1" stop-color="#00C1CE"/>
</linearGradient>
<linearGradient id="paint2_linear_59302_43701" x1="73.7864" y1="21.667" x2="28.6783" y2="99.7964" gradientUnits="userSpaceOnUse">
<stop offset="0.2" stop-color="#22E6B8"/>
<stop offset="1" stop-color="#00C1CE"/>
</linearGradient>
</defs>
</svg>
